<svg width="1992" height="1009" viewBox="0 0 1992 1009" fill="none" xmlns="http://www.w3.org/2000/svg">
<line x1="1964.69" y1="354.37" x2="1275.25" y2="358.855" stroke="#2C3035" stroke-width="6"/>
<line x1="1985.27" y1="327.136" x2="1251.46" y2="334.883" stroke="#2C3035" stroke-width="6"/>
<line x1="1735.58" y1="354.005" x2="1734.56" y2="654.345" stroke="#2C3035" stroke-width="6"/>
<line x1="1715.1" y1="353.936" x2="1714.08" y2="654.275" stroke="#2C3035" stroke-width="6"/>
<line x1="1963.25" y1="784.401" x2="1731.15" y2="787.027" stroke="#2C3035" stroke-width="6"/>
<line x1="1983.07" y1="804.725" x2="1731.08" y2="807.504" stroke="#2C3035" stroke-width="6"/>
<line x1="1731.59" y1="656.87" x2="1711.14" y2="657.265" stroke="#2C3035" stroke-width="6"/>
<line x1="1734.12" y1="784.037" x2="1734.05" y2="804.514" stroke="#2C3035" stroke-width="6"/>
<line x1="1734.2" y1="760.146" x2="1734.06" y2="801.102" stroke="#2C3035" stroke-width="6"/>
<line x1="1731.15" y1="763.136" x2="1711.12" y2="762.801" stroke="#2C3035" stroke-width="6"/>
<line x1="1713.72" y1="760.077" x2="1713.57" y2="804.445" stroke="#2C3035" stroke-width="6"/>
<line x1="1734.45" y1="807.516" x2="1710.56" y2="807.435" stroke="#2C3035" stroke-width="6"/>
<line x1="1988.24" y1="324.15" x2="1986.03" y2="801.739" stroke="#2C3035" stroke-width="6"/>
<line x1="1967.67" y1="351.381" x2="1966.1" y2="781.668" stroke="#2C3035" stroke-width="6"/>
<line x1="1278.23" y1="355.859" x2="1278.09" y2="490.323" stroke="#2C3035" stroke-width="6"/>
<path d="M1251.92 331.885L1251.48 462.74" stroke="#2C3035" stroke-width="6"/>
<line x1="1275.06" y1="492.32" x2="1220.14" y2="491.775" stroke="#2C3035" stroke-width="6"/>
<line x1="1217.09" y1="490.114" x2="1217.27" y2="461.453" stroke="#2C3035" stroke-width="6"/>
<path d="M1251.18 462.239L1220.27 461.971" stroke="#2C3035" stroke-width="6"/>
<line x1="1710.63" y1="786.957" x2="1560.46" y2="786.447" stroke="#2C3035" stroke-width="6"/>
<line x1="1710.56" y1="807.435" x2="1584.28" y2="807.006" stroke="#2C3035" stroke-width="6"/>
<line x1="1587.29" y1="804.016" x2="1586.61" y2="1005.38" stroke="#2C3035" stroke-width="6"/>
<line x1="1563.47" y1="783.457" x2="1562.78" y2="988.234" stroke="#2C3035" stroke-width="6"/>
<path d="M1584.34 1005.87L999.994 1003.89" stroke="#2C3035" stroke-width="6"/>
<line x1="1559.39" y1="991.288" x2="1232.12" y2="990.112" stroke="#2C3035" stroke-width="6"/>
<line x1="1232.55" y1="987.114" x2="1232.93" y2="874.486" stroke="#2C3035" stroke-width="6"/>
<line x1="1235.8" y1="871.189" x2="1433.9" y2="872.168" stroke="#2C3035" stroke-width="6"/>
<line x1="1478.34" y1="857.841" x2="1109.73" y2="859.972" stroke="#2C3035" stroke-width="6"/>
<line x1="1481.32" y1="854.851" x2="1481.25" y2="875.329" stroke="#2C3035" stroke-width="6"/>
<path d="M1427.06 874.645L1478.78 874.821" stroke="#2C3035" stroke-width="6"/>
<line x1="1430.4" y1="987.85" x2="1430.54" y2="946.85" stroke="#2C3035" stroke-width="6"/>
<line x1="1433.65" y1="943.84" x2="1447.55" y2="943.908" stroke="#2C3035" stroke-width="6"/>
<line x1="1450.29" y1="946.897" x2="1450.15" y2="987.852" stroke="#2C3035" stroke-width="6"/>
<line x1="1112.71" y1="857.013" x2="1112.7" y2="860.426" stroke="#2C3035" stroke-width="6"/>
<line x1="1112.71" y1="857.013" x2="1112.66" y2="870.665" stroke="#2C3035" stroke-width="6"/>
<path d="M1109.66 870.155L1207.3 870.486" stroke="#2C3035" stroke-width="6"/>
<path d="M1206.8 870.09L1206.53 990.438" stroke="#2C3035" stroke-width="6"/>
<path d="M1204.81 992.139L1022.22 991.519" stroke="#2C3035" stroke-width="6"/>
<line x1="1020.93" y1="989.797" x2="1021.78" y2="872.451" stroke="#2C3035" stroke-width="6"/>
<path d="M1024.33 872.072L904.879 871.666" stroke="#2C3035" stroke-width="6"/>
<line x1="1000.41" y1="1003.39" x2="1000.81" y2="883.937" stroke="#2C3035" stroke-width="6"/>
<line x1="1003.8" y1="886.947" x2="921.893" y2="886.669" stroke="#2C3035" stroke-width="6"/>
<path d="M922.404 883.671L922.217 938.624" stroke="#2C3035" stroke-width="6"/>
<path d="M905.385 869.961L905.198 925.067" stroke="#2C3035" stroke-width="6"/>
<line x1="921.686" y1="941.276" x2="498.545" y2="936.694" stroke="#2C3035" stroke-width="6"/>
<path d="M905.109 925.066L512.618 920.326" stroke="#2C3035" stroke-width="6"/>
<line x1="509.222" y1="919.811" x2="509.454" y2="851.552" stroke="#2C3035" stroke-width="6"/>
<line x1="495.524" y1="933.417" x2="495.756" y2="865.158" stroke="#2C3035" stroke-width="6"/>
<line x1="512.444" y1="854.562" x2="276.95" y2="853.763" stroke="#2C3035" stroke-width="6"/>
<path d="M497.809 865.665L276.912 864.915" stroke="#2C3035" stroke-width="6"/>
<line x1="280.458" y1="704.018" x2="279.57" y2="935.944" stroke="#2C3035" stroke-width="6"/>
<line x1="277.448" y1="707.006" x2="256.971" y2="706.937" stroke="#2C3035" stroke-width="6"/>
<path d="M258.687 703.915L257.951 920.665" stroke="#2C3035" stroke-width="6"/>
<line x1="276.66" y1="939.087" x2="0.211568" y2="938.148" stroke="#2C3035" stroke-width="6"/>
<path d="M258.125 919.459L24.1688 918.665" stroke="#2C3035" stroke-width="6"/>
<line x1="21.1704" y1="918.154" x2="23.0937" y2="351.605" stroke="#2C3035" stroke-width="6"/>
<line x1="24.5573" y1="349.074" x2="602.89" y2="350.573" stroke="#2C3035" stroke-width="6"/>
<line x1="605.894" y1="350.17" x2="605.43" y2="486.688" stroke="#2C3035" stroke-width="6"/>
<line x1="602.44" y1="483.678" x2="892.541" y2="484.663" stroke="#2C3035" stroke-width="6"/>
<line x1="895.531" y1="487.678" x2="894.203" y2="750.033" stroke="#2C3035" stroke-width="6"/>
<line x1="895.2" y1="753.032" x2="710.749" y2="752.846" stroke="#2C3035" stroke-width="6"/>
<line x1="892.541" y1="484.663" x2="1093.91" y2="485.346" stroke="#2C3035" stroke-width="6"/>
<line x1="1093.98" y1="464.043" x2="630.177" y2="462.13" stroke="#2C3035" stroke-width="6"/>
<line x1="626.827" y1="459.457" x2="627.267" y2="329.765" stroke="#2C3035" stroke-width="6"/>
<line x1="630.257" y1="332.775" x2="2.27396" y2="330.643" stroke="#2C3035" stroke-width="6"/>
<line x1="5.28417" y1="327.652" x2="3.56939" y2="935.004" stroke="#2C3035" stroke-width="6"/>
<line x1="1096.99" y1="461.053" x2="1096.9" y2="488.357" stroke="#2C3035" stroke-width="6"/>
<path d="M896.444 487.676L895.548 751.533" stroke="#2C3035" stroke-width="6"/>
<line x1="714.205" y1="749.425" x2="713.162" y2="923.924" stroke="#2C3035" stroke-width="6"/>
<line x1="744.458" y1="753.373" x2="743.878" y2="924.021" stroke="#2C3035" stroke-width="6"/>
<line x1="778.587" y1="753.489" x2="778.008" y2="924.137" stroke="#2C3035" stroke-width="6"/>
<line x1="812.717" y1="753.605" x2="812.137" y2="924.253" stroke="#2C3035" stroke-width="6"/>
<line x1="281.652" y1="352.483" x2="281.096" y2="516.304" stroke="#2C3035" stroke-width="6"/>
<line x1="277.984" y1="518.935" x2="257.507" y2="518.866" stroke="#2C3035" stroke-width="6"/>
<line x1="261.174" y1="352.413" x2="260.618" y2="516.235" stroke="#2C3035" stroke-width="6"/>
<line x1="1218.98" y1="464.182" x2="1161.05" y2="436.681" stroke="#2C3035" stroke-width="6"/>
<line x1="1094.23" y1="461.706" x2="1135.18" y2="461.845" stroke="#2C3035" stroke-width="6"/>
<line x1="1101.61" y1="334.73" x2="630.254" y2="332.775" stroke="#2C3035" stroke-width="6"/>
<line x1="1102.08" y1="197.731" x2="664.85" y2="196.373" stroke="#2C3035" stroke-width="6"/>
<line x1="667.802" y1="210.448" x2="667.385" y2="333.314" stroke="#2C3035" stroke-width="6"/>
<line x1="1077.41" y1="194.773" x2="1076.95" y2="331.291" stroke="#2C3035" stroke-width="6"/>
<line x1="705.391" y1="196.924" x2="704.927" y2="333.441" stroke="#2C3035" stroke-width="6"/>
<line x1="742.933" y1="197.051" x2="742.47" y2="333.569" stroke="#2C3035" stroke-width="6"/>
<line x1="783.888" y1="197.19" x2="783.425" y2="333.708" stroke="#2C3035" stroke-width="6"/>
<line x1="824.844" y1="197.329" x2="824.392" y2="330.434" stroke="#2C3035" stroke-width="6"/>
<line x1="858.973" y1="197.445" x2="858.522" y2="330.55" stroke="#2C3035" stroke-width="6"/>
<line x1="899.929" y1="197.584" x2="899.477" y2="330.689" stroke="#2C3035" stroke-width="6"/>
<line x1="937.471" y1="197.711" x2="937.019" y2="330.816" stroke="#2C3035" stroke-width="6"/>
<line x1="971.084" y1="196.274" x2="971.149" y2="330.92" stroke="#2C3035" stroke-width="6"/>
<line x1="1005.09" y1="194.387" x2="1005.28" y2="331.034" stroke="#2C3035" stroke-width="6"/>
<line x1="1039.87" y1="194.646" x2="1039.41" y2="331.164" stroke="#2C3035" stroke-width="6"/>
<line x1="1098.62" y1="331.72" x2="1099.66" y2="27.7218" stroke="#2C3035" stroke-width="6"/>
<path d="M1102.29 27.6213L1252.66 28.2411" stroke="#2C3035" stroke-width="6"/>
<line x1="1255.45" y1="28.1413" x2="1254.42" y2="331.894" stroke="#2C3035" stroke-width="6"/>
<line x1="511.227" y1="329.371" x2="511.621" y2="213.331" stroke="#2C3035" stroke-width="6"/>
<line x1="494.162" y1="329.313" x2="494.556" y2="213.273" stroke="#2C3035" stroke-width="6"/>
<line x1="497.545" y1="216.283" x2="23.1455" y2="214.672" stroke="#2C3035" stroke-width="6"/>
<line x1="26.1557" y1="211.683" x2="25.7618" y2="327.723" stroke="#2C3035" stroke-width="6"/>
<line x1="514.61" y1="216.341" x2="477.068" y2="216.213" stroke="#2C3035" stroke-width="6"/>
<line x1="1275.73" y1="331.966" x2="1276.13" y2="212.513" stroke="#2C3035" stroke-width="6"/>
<line x1="1279.14" y1="209.523" x2="1713.04" y2="210.804" stroke="#2C3035" stroke-width="6"/>
<line x1="1715.58" y1="214.005" x2="1715.2" y2="326.632" stroke="#2C3035" stroke-width="6"/>
<line x1="1729.67" y1="326.681" x2="1730.06" y2="213.863" stroke="#2C3035" stroke-width="6"/>
<line x1="1733.07" y1="211.064" x2="1965.15" y2="211.852" stroke="#2C3035" stroke-width="6"/>
<line x1="1982.65" y1="324.721" x2="1983.11" y2="190.722" stroke="#2C3035" stroke-width="6"/>
<path d="M1964.26 324.065L1964.64 214.159" stroke="#2C3035" stroke-width="6"/>
<line x1="1923.65" y1="324.521" x2="1923.56" y2="351.824" stroke="#2C3035" stroke-width="6"/>
<line x1="1783.45" y1="326.864" x2="1783.36" y2="354.167" stroke="#2C3035" stroke-width="6"/>
<path d="M1593.23 329.631L1593.15 354.399" stroke="#2C3035" stroke-width="6"/>
<line x1="1404.59" y1="332.404" x2="1404.51" y2="356.294" stroke="#2C3035" stroke-width="6"/>
<line x1="486.51" y1="329.287" x2="486.429" y2="353.178" stroke="#2C3035" stroke-width="6"/>
<line x1="298.798" y1="328.65" x2="298.717" y2="352.54" stroke="#2C3035" stroke-width="6"/>
<line x1="213.474" y1="328.36" x2="213.393" y2="352.251" stroke="#2C3035" stroke-width="6"/>
<path d="M71.0432 327.877L70.9639 351.232" stroke="#2C3035" stroke-width="6"/>
<line x1="902.541" y1="869.082" x2="981.433" y2="779.506" stroke="#2C3035" stroke-width="6"/>
<line x1="972.06" y1="794.372" x2="965.246" y2="790.936" stroke="#2C3035" stroke-width="6"/>
<line x1="1029.19" y1="460.485" x2="1029.1" y2="486.485" stroke="#2C3035" stroke-width="6"/>
<line x1="949.182" y1="461.324" x2="948.09" y2="488.321" stroke="#2C3035" stroke-width="6"/>
<line x1="854.668" y1="460.23" x2="854.587" y2="484.121" stroke="#2C3035" stroke-width="6"/>
<line x1="666.956" y1="459.593" x2="666.875" y2="483.484" stroke="#2C3035" stroke-width="6"/>
<path d="M1027.21 465.468L947.274 484.92" stroke="#2C3035" stroke-width="6"/>
<line x1="852.037" y1="463.197" x2="664.244" y2="486.451" stroke="#2C3035" stroke-width="6"/>
<line x1="483.858" y1="332.257" x2="297.903" y2="353.98" stroke="#2C3035" stroke-width="6"/>
<line x1="210.855" y1="334.737" x2="70.9485" y2="353.204" stroke="#2C3035" stroke-width="6"/>
<line x1="1592.02" y1="332.369" x2="1402.22" y2="356.616" stroke="#2C3035" stroke-width="6"/>
<line x1="1920.88" y1="330.288" x2="1780.87" y2="353.703" stroke="#2C3035" stroke-width="6"/>
<line x1="1446.67" y1="873.622" x2="1480.61" y2="928.345" stroke="#2C3035" stroke-width="6"/>
<line x1="1985.68" y1="194.031" x2="1279.1" y2="191.333" stroke="#2C3035" stroke-width="6"/>
<line x1="1276.21" y1="188.622" x2="1276.84" y2="4.32311" stroke="#2C3035" stroke-width="6"/>
<line x1="1279.83" y1="7.33323" x2="1081.88" y2="6.66125" stroke="#2C3035" stroke-width="6"/>
<line x1="1084.89" y1="3.67132" x2="1084.3" y2="177.732" stroke="#2C3035" stroke-width="6"/>
<path d="M1081.65 177.723L664.918 176.308" stroke="#2C3035" stroke-width="6"/>
<line x1="667.86" y1="193.383" x2="667.767" y2="220.687" stroke="#2C3035" stroke-width="6"/>
<line x1="511.621" y1="213.331" x2="511.69" y2="192.853" stroke="#2C3035" stroke-width="6"/>
<line x1="514.68" y1="195.863" x2="2.73731" y2="194.125" stroke="#2C3035" stroke-width="6"/>
<line x1="5.74754" y1="191.135" x2="5.21459" y2="348.131" stroke="#2C3035" stroke-width="6"/>
<line x1="667.918" y1="176.318" x2="667.825" y2="203.622" stroke="#2C3035" stroke-width="6"/>
<path d="M866.707 827.707C867.098 827.317 867.098 826.683 866.707 826.293L860.343 819.929C859.953 819.538 859.319 819.538 858.929 819.929C858.538 820.319 858.538 820.953 858.929 821.343L864.586 827L858.929 832.657C858.538 833.047 858.538 833.681 858.929 834.071C859.319 834.462 859.953 834.462 860.343 834.071L866.707 827.707ZM630 827V828H866V827V826H630V827Z" fill="black"/>
<path d="M629.296 257.29C628.904 257.679 628.901 258.313 629.29 258.705L635.631 265.092C636.02 265.483 636.653 265.486 637.045 265.097C637.437 264.708 637.44 264.074 637.051 263.682L631.414 258.005L637.092 252.369C637.484 251.98 637.486 251.347 637.097 250.955C636.708 250.563 636.074 250.56 635.683 250.95L629.296 257.29ZM1181 260L1181 259L630.004 257L630 258L629.996 259L1181 261L1181 260Z" fill="black"/>
</svg>
