<svg width="1991" height="1009" viewBox="0 0 1991 1009" fill="none" xmlns="http://www.w3.org/2000/svg">
<line x1="1964.69" y1="353.87" x2="1275.25" y2="358.355" stroke="#F4F6F8" stroke-width="5"/>
<line x1="1985.27" y1="326.636" x2="1251.45" y2="334.383" stroke="#F4F6F8" stroke-width="5"/>
<line x1="1735.08" y1="354.004" x2="1734.06" y2="654.343" stroke="#F4F6F8" stroke-width="5"/>
<line x1="1714.6" y1="353.934" x2="1713.58" y2="654.274" stroke="#F4F6F8" stroke-width="5"/>
<line x1="1963.24" y1="783.901" x2="1731.15" y2="786.527" stroke="#F4F6F8" stroke-width="5"/>
<line x1="1983.06" y1="804.225" x2="1731.08" y2="807.004" stroke="#F4F6F8" stroke-width="5"/>
<line x1="1731.58" y1="656.37" x2="1711.13" y2="656.765" stroke="#F4F6F8" stroke-width="5"/>
<line x1="1733.62" y1="784.035" x2="1733.55" y2="804.513" stroke="#F4F6F8" stroke-width="5"/>
<line x1="1733.7" y1="760.144" x2="1733.56" y2="801.1" stroke="#F4F6F8" stroke-width="5"/>
<line x1="1731.16" y1="762.636" x2="1711.13" y2="762.301" stroke="#F4F6F8" stroke-width="5"/>
<line x1="1713.22" y1="760.075" x2="1713.07" y2="804.443" stroke="#F4F6F8" stroke-width="5"/>
<line x1="1734.46" y1="807.016" x2="1710.56" y2="806.935" stroke="#F4F6F8" stroke-width="5"/>
<line x1="1987.74" y1="324.147" x2="1985.53" y2="801.736" stroke="#F4F6F8" stroke-width="5"/>
<line x1="1967.17" y1="351.379" x2="1965.6" y2="781.666" stroke="#F4F6F8" stroke-width="5"/>
<line x1="1277.73" y1="355.858" x2="1277.59" y2="490.323" stroke="#F4F6F8" stroke-width="5"/>
<path d="M1251.92 331.885L1251.48 462.74" stroke="#F4F6F8" stroke-width="5"/>
<line x1="1275.07" y1="491.82" x2="1220.15" y2="491.275" stroke="#F4F6F8" stroke-width="5"/>
<line x1="1217.59" y1="490.117" x2="1217.77" y2="461.456" stroke="#F4F6F8" stroke-width="5"/>
<path d="M1251.18 462.239L1220.27 461.971" stroke="#F4F6F8" stroke-width="5"/>
<line x1="1710.63" y1="786.457" x2="1560.46" y2="785.947" stroke="#F4F6F8" stroke-width="5"/>
<line x1="1710.56" y1="806.935" x2="1584.29" y2="806.506" stroke="#F4F6F8" stroke-width="5"/>
<line x1="1586.79" y1="804.015" x2="1586.11" y2="1005.38" stroke="#F4F6F8" stroke-width="5"/>
<line x1="1562.97" y1="783.456" x2="1562.28" y2="988.233" stroke="#F4F6F8" stroke-width="5"/>
<path d="M1584.34 1005.87L999.994 1003.89" stroke="#F4F6F8" stroke-width="5"/>
<line x1="1559.39" y1="990.788" x2="1232.13" y2="989.612" stroke="#F4F6F8" stroke-width="5"/>
<line x1="1233.05" y1="987.115" x2="1233.43" y2="874.488" stroke="#F4F6F8" stroke-width="5"/>
<line x1="1235.8" y1="871.689" x2="1433.89" y2="872.668" stroke="#F4F6F8" stroke-width="5"/>
<line x1="1478.33" y1="857.341" x2="1109.72" y2="859.472" stroke="#F4F6F8" stroke-width="5"/>
<line x1="1480.82" y1="854.85" x2="1480.75" y2="875.328" stroke="#F4F6F8" stroke-width="5"/>
<path d="M1427.06 874.645L1478.78 874.821" stroke="#F4F6F8" stroke-width="5"/>
<line x1="1430.9" y1="987.852" x2="1431.04" y2="946.852" stroke="#F4F6F8" stroke-width="5"/>
<line x1="1433.65" y1="944.34" x2="1447.55" y2="944.408" stroke="#F4F6F8" stroke-width="5"/>
<line x1="1449.79" y1="946.895" x2="1449.65" y2="987.85" stroke="#F4F6F8" stroke-width="5"/>
<line x1="1112.21" y1="857.011" x2="1112.2" y2="860.424" stroke="#F4F6F8" stroke-width="5"/>
<line x1="1112.21" y1="857.011" x2="1112.16" y2="870.663" stroke="#F4F6F8" stroke-width="5"/>
<path d="M1109.66 870.155L1207.3 870.486" stroke="#F4F6F8" stroke-width="5"/>
<path d="M1206.8 870.09L1206.53 990.438" stroke="#F4F6F8" stroke-width="5"/>
<path d="M1204.81 992.139L1022.22 991.519" stroke="#F4F6F8" stroke-width="5"/>
<line x1="1021.43" y1="989.8" x2="1022.28" y2="872.454" stroke="#F4F6F8" stroke-width="5"/>
<path d="M1024.33 872.072L904.879 871.666" stroke="#F4F6F8" stroke-width="5"/>
<line x1="1000.91" y1="1003.39" x2="1001.31" y2="883.939" stroke="#F4F6F8" stroke-width="5"/>
<line x1="1003.81" y1="886.447" x2="921.895" y2="886.169" stroke="#F4F6F8" stroke-width="5"/>
<path d="M922.404 883.671L922.217 938.624" stroke="#F4F6F8" stroke-width="5"/>
<path d="M905.385 869.961L905.198 925.067" stroke="#F4F6F8" stroke-width="5"/>
<line x1="921.691" y1="940.776" x2="498.551" y2="936.194" stroke="#F4F6F8" stroke-width="5"/>
<path d="M905.109 925.066L512.618 920.326" stroke="#F4F6F8" stroke-width="5"/>
<line x1="509.722" y1="919.813" x2="509.954" y2="851.554" stroke="#F4F6F8" stroke-width="5"/>
<line x1="496.024" y1="933.418" x2="496.256" y2="865.159" stroke="#F4F6F8" stroke-width="5"/>
<line x1="512.445" y1="854.062" x2="276.952" y2="853.263" stroke="#F4F6F8" stroke-width="5"/>
<path d="M497.809 865.665L276.912 864.915" stroke="#F4F6F8" stroke-width="5"/>
<line x1="279.959" y1="704.016" x2="279.07" y2="935.942" stroke="#F4F6F8" stroke-width="5"/>
<line x1="277.45" y1="706.506" x2="256.972" y2="706.437" stroke="#F4F6F8" stroke-width="5"/>
<path d="M258.687 703.915L257.951 920.665" stroke="#F4F6F8" stroke-width="5"/>
<line x1="276.662" y1="938.587" x2="0.213372" y2="937.648" stroke="#F4F6F8" stroke-width="5"/>
<path d="M258.125 919.459L24.1688 918.665" stroke="#F4F6F8" stroke-width="5"/>
<line x1="21.6704" y1="918.156" x2="23.5936" y2="351.606" stroke="#F4F6F8" stroke-width="5"/>
<line x1="24.5559" y1="349.574" x2="602.889" y2="351.073" stroke="#F4F6F8" stroke-width="5"/>
<line x1="605.394" y1="350.169" x2="604.93" y2="486.687" stroke="#F4F6F8" stroke-width="5"/>
<line x1="602.439" y1="484.178" x2="892.539" y2="485.163" stroke="#F4F6F8" stroke-width="5"/>
<line x1="895.031" y1="487.675" x2="893.703" y2="750.031" stroke="#F4F6F8" stroke-width="5"/>
<line x1="895.201" y1="752.532" x2="710.75" y2="752.346" stroke="#F4F6F8" stroke-width="5"/>
<line x1="892.54" y1="485.163" x2="1093.9" y2="485.846" stroke="#F4F6F8" stroke-width="5"/>
<line x1="1093.98" y1="463.543" x2="630.179" y2="461.63" stroke="#F4F6F8" stroke-width="5"/>
<line x1="627.327" y1="459.459" x2="627.767" y2="329.766" stroke="#F4F6F8" stroke-width="5"/>
<line x1="630.258" y1="332.275" x2="2.27562" y2="330.143" stroke="#F4F6F8" stroke-width="5"/>
<line x1="4.78411" y1="327.65" x2="3.06933" y2="935.003" stroke="#F4F6F8" stroke-width="5"/>
<line x1="1096.49" y1="461.051" x2="1096.4" y2="488.355" stroke="#F4F6F8" stroke-width="5"/>
<path d="M896.444 487.676L895.548 751.533" stroke="#F4F6F8" stroke-width="5"/>
<line x1="713.705" y1="749.422" x2="712.662" y2="923.921" stroke="#F4F6F8" stroke-width="5"/>
<line x1="743.958" y1="753.372" x2="743.378" y2="924.019" stroke="#F4F6F8" stroke-width="5"/>
<line x1="778.087" y1="753.487" x2="777.508" y2="924.135" stroke="#F4F6F8" stroke-width="5"/>
<line x1="812.217" y1="753.603" x2="811.637" y2="924.251" stroke="#F4F6F8" stroke-width="5"/>
<line x1="281.152" y1="352.481" x2="280.596" y2="516.302" stroke="#F4F6F8" stroke-width="5"/>
<line x1="277.986" y1="518.435" x2="257.508" y2="518.366" stroke="#F4F6F8" stroke-width="5"/>
<line x1="260.674" y1="352.411" x2="260.118" y2="516.233" stroke="#F4F6F8" stroke-width="5"/>
<line x1="1219.19" y1="463.73" x2="1161.27" y2="436.229" stroke="#F4F6F8" stroke-width="5"/>
<line x1="1094.23" y1="462.206" x2="1135.18" y2="462.345" stroke="#F4F6F8" stroke-width="5"/>
<line x1="1101.61" y1="334.23" x2="630.256" y2="332.275" stroke="#F4F6F8" stroke-width="5"/>
<line x1="1102.08" y1="197.231" x2="664.852" y2="195.873" stroke="#F4F6F8" stroke-width="5"/>
<line x1="667.302" y1="210.446" x2="666.885" y2="333.312" stroke="#F4F6F8" stroke-width="5"/>
<line x1="1076.91" y1="194.772" x2="1076.45" y2="331.29" stroke="#F4F6F8" stroke-width="5"/>
<line x1="704.891" y1="196.922" x2="704.427" y2="333.44" stroke="#F4F6F8" stroke-width="5"/>
<line x1="742.433" y1="197.049" x2="741.97" y2="333.567" stroke="#F4F6F8" stroke-width="5"/>
<line x1="783.388" y1="197.188" x2="782.925" y2="333.706" stroke="#F4F6F8" stroke-width="5"/>
<line x1="824.344" y1="197.327" x2="823.892" y2="330.432" stroke="#F4F6F8" stroke-width="5"/>
<line x1="858.473" y1="197.443" x2="858.021" y2="330.548" stroke="#F4F6F8" stroke-width="5"/>
<line x1="899.429" y1="197.582" x2="898.977" y2="330.687" stroke="#F4F6F8" stroke-width="5"/>
<line x1="936.971" y1="197.71" x2="936.519" y2="330.815" stroke="#F4F6F8" stroke-width="5"/>
<line x1="970.584" y1="196.275" x2="970.649" y2="330.921" stroke="#F4F6F8" stroke-width="5"/>
<line x1="1004.59" y1="194.388" x2="1004.78" y2="331.034" stroke="#F4F6F8" stroke-width="5"/>
<line x1="1039.37" y1="194.644" x2="1038.91" y2="331.162" stroke="#F4F6F8" stroke-width="5"/>
<line x1="1099.12" y1="331.722" x2="1100.16" y2="27.7235" stroke="#F4F6F8" stroke-width="5"/>
<path d="M1102.29 27.6213L1252.66 28.2411" stroke="#F4F6F8" stroke-width="5"/>
<line x1="1254.95" y1="28.1396" x2="1253.92" y2="331.892" stroke="#F4F6F8" stroke-width="5"/>
<line x1="511.727" y1="329.373" x2="512.12" y2="213.332" stroke="#F4F6F8" stroke-width="5"/>
<line x1="494.662" y1="329.315" x2="495.056" y2="213.274" stroke="#F4F6F8" stroke-width="5"/>
<line x1="497.547" y1="215.783" x2="23.1473" y2="214.173" stroke="#F4F6F8" stroke-width="5"/>
<line x1="25.6557" y1="211.681" x2="25.2618" y2="327.721" stroke="#F4F6F8" stroke-width="5"/>
<line x1="514.612" y1="215.841" x2="477.07" y2="215.713" stroke="#F4F6F8" stroke-width="5"/>
<line x1="1276.23" y1="331.968" x2="1276.63" y2="212.515" stroke="#F4F6F8" stroke-width="5"/>
<line x1="1279.14" y1="210.023" x2="1713.04" y2="211.304" stroke="#F4F6F8" stroke-width="5"/>
<line x1="1715.08" y1="214.003" x2="1714.7" y2="326.63" stroke="#F4F6F8" stroke-width="5"/>
<line x1="1730.17" y1="326.683" x2="1730.56" y2="213.864" stroke="#F4F6F8" stroke-width="5"/>
<line x1="1733.06" y1="211.564" x2="1965.14" y2="212.352" stroke="#F4F6F8" stroke-width="5"/>
<line x1="1983.15" y1="324.722" x2="1983.61" y2="190.723" stroke="#F4F6F8" stroke-width="5"/>
<path d="M1964.26 324.065L1964.64 214.159" stroke="#F4F6F8" stroke-width="5"/>
<line x1="1923.15" y1="324.519" x2="1923.06" y2="351.823" stroke="#F4F6F8" stroke-width="5"/>
<line x1="1782.95" y1="326.862" x2="1782.86" y2="354.166" stroke="#F4F6F8" stroke-width="5"/>
<path d="M1593.23 329.631L1593.15 354.399" stroke="#F4F6F8" stroke-width="5"/>
<line x1="1404.09" y1="332.402" x2="1404.01" y2="356.293" stroke="#F4F6F8" stroke-width="5"/>
<line x1="486.01" y1="329.285" x2="485.929" y2="353.176" stroke="#F4F6F8" stroke-width="5"/>
<line x1="298.298" y1="328.648" x2="298.217" y2="352.539" stroke="#F4F6F8" stroke-width="5"/>
<line x1="212.974" y1="328.358" x2="212.893" y2="352.249" stroke="#F4F6F8" stroke-width="5"/>
<path d="M71.0431 327.877L70.9638 351.232" stroke="#F4F6F8" stroke-width="5"/>
<line x1="902.917" y1="869.413" x2="981.808" y2="779.837" stroke="#F4F6F8" stroke-width="5"/>
<line x1="972.285" y1="793.926" x2="965.471" y2="790.49" stroke="#F4F6F8" stroke-width="5"/>
<line x1="1028.69" y1="460.483" x2="1028.6" y2="486.483" stroke="#F4F6F8" stroke-width="5"/>
<line x1="948.682" y1="461.304" x2="947.591" y2="488.301" stroke="#F4F6F8" stroke-width="5"/>
<line x1="854.168" y1="460.229" x2="854.087" y2="484.119" stroke="#F4F6F8" stroke-width="5"/>
<line x1="666.456" y1="459.591" x2="666.375" y2="483.482" stroke="#F4F6F8" stroke-width="5"/>
<path d="M1027.21 465.468L947.274 484.92" stroke="#F4F6F8" stroke-width="5"/>
<line x1="851.975" y1="462.701" x2="664.182" y2="485.955" stroke="#F4F6F8" stroke-width="5"/>
<line x1="483.8" y1="331.76" x2="297.845" y2="353.484" stroke="#F4F6F8" stroke-width="5"/>
<line x1="210.79" y1="334.241" x2="70.8831" y2="352.709" stroke="#F4F6F8" stroke-width="5"/>
<line x1="1591.95" y1="331.873" x2="1402.16" y2="356.12" stroke="#F4F6F8" stroke-width="5"/>
<line x1="1920.8" y1="329.794" x2="1780.79" y2="353.21" stroke="#F4F6F8" stroke-width="5"/>
<line x1="1446.24" y1="873.885" x2="1480.19" y2="928.608" stroke="#F4F6F8" stroke-width="5"/>
<line x1="1985.68" y1="193.531" x2="1279.1" y2="190.833" stroke="#F4F6F8" stroke-width="5"/>
<line x1="1276.71" y1="188.624" x2="1277.34" y2="4.32481" stroke="#F4F6F8" stroke-width="5"/>
<line x1="1279.83" y1="6.83324" x2="1081.88" y2="6.16125" stroke="#F4F6F8" stroke-width="5"/>
<line x1="1084.39" y1="3.66962" x2="1083.8" y2="177.73" stroke="#F4F6F8" stroke-width="5"/>
<path d="M1081.65 177.723L664.918 176.308" stroke="#F4F6F8" stroke-width="5"/>
<line x1="667.36" y1="193.381" x2="667.267" y2="220.685" stroke="#F4F6F8" stroke-width="5"/>
<line x1="512.121" y1="213.332" x2="512.19" y2="192.855" stroke="#F4F6F8" stroke-width="5"/>
<line x1="514.682" y1="195.363" x2="2.73908" y2="193.625" stroke="#F4F6F8" stroke-width="5"/>
<line x1="5.24754" y1="191.134" x2="4.71459" y2="348.129" stroke="#F4F6F8" stroke-width="5"/>
<line x1="667.418" y1="176.317" x2="667.325" y2="203.62" stroke="#F4F6F8" stroke-width="5"/>
</svg>
