<svg width="1004" height="1988" viewBox="0 0 1004 1988" fill="none" xmlns="http://www.w3.org/2000/svg">
<line x1="656.29" y1="1962.48" x2="649.464" y2="1273.06" stroke="#F4F6F8" stroke-width="5"/>
<line x1="683.594" y1="1982.97" x2="673.355" y2="1249.18" stroke="#F4F6F8" stroke-width="5"/>
<line x1="655.377" y1="1732.88" x2="355.036" y2="1732.88" stroke="#F4F6F8" stroke-width="5"/>
<line x1="655.377" y1="1712.4" x2="355.036" y2="1712.4" stroke="#F4F6F8" stroke-width="5"/>
<line x1="226.256" y1="1962.49" x2="222.843" y2="1730.41" stroke="#F4F6F8" stroke-width="5"/>
<line x1="206" y1="1982.38" x2="202.365" y2="1730.41" stroke="#F4F6F8" stroke-width="5"/>
<line x1="353.001" y1="1730.4" x2="352.536" y2="1709.95" stroke="#F4F6F8" stroke-width="5"/>
<line x1="225.343" y1="1732.88" x2="204.865" y2="1732.88" stroke="#F4F6F8" stroke-width="5"/>
<line x1="249.234" y1="1732.88" x2="208.278" y2="1732.88" stroke="#F4F6F8" stroke-width="5"/>
<line x1="246.734" y1="1730.34" x2="247" y2="1710.31" stroke="#F4F6F8" stroke-width="5"/>
<line x1="249.234" y1="1712.4" x2="204.865" y2="1712.4" stroke="#F4F6F8" stroke-width="5"/>
<line x1="202.365" y1="1733.79" x2="202.365" y2="1709.9" stroke="#F4F6F8" stroke-width="5"/>
<line x1="686.091" y1="1985.44" x2="208.497" y2="1984.85" stroke="#F4F6F8" stroke-width="5"/>
<line x1="658.789" y1="1964.96" x2="228.499" y2="1964.85" stroke="#F4F6F8" stroke-width="5"/>
<line x1="651.97" y1="1275.54" x2="517.506" y2="1275.85" stroke="#F4F6F8" stroke-width="5"/>
<path d="M675.855 1249.65H545" stroke="#F4F6F8" stroke-width="5"/>
<line x1="516" y1="1273.33" x2="516.358" y2="1218.41" stroke="#F4F6F8" stroke-width="5"/>
<line x1="517.507" y1="1215.85" x2="546.169" y2="1215.93" stroke="#F4F6F8" stroke-width="5"/>
<path d="M545.5 1249.35L545.662 1218.43" stroke="#F4F6F8" stroke-width="5"/>
<line x1="222.843" y1="1709.9" x2="222.843" y2="1559.73" stroke="#F4F6F8" stroke-width="5"/>
<line x1="202.365" y1="1709.9" x2="202.365" y2="1583.62" stroke="#F4F6F8" stroke-width="5"/>
<line x1="204.865" y1="1586.12" x2="3.49998" y2="1586.12" stroke="#F4F6F8" stroke-width="5"/>
<line x1="225.343" y1="1562.23" x2="20.5649" y2="1562.23" stroke="#F4F6F8" stroke-width="5"/>
<path d="M3 1584.35L3 1000" stroke="#F4F6F8" stroke-width="5"/>
<line x1="18" y1="1559.35" x2="18.0648" y2="1232.08" stroke="#F4F6F8" stroke-width="5"/>
<line x1="20.5648" y1="1233" x2="133.193" y2="1233" stroke="#F4F6F8" stroke-width="5"/>
<line x1="136" y1="1235.35" x2="135.693" y2="1433.45" stroke="#F4F6F8" stroke-width="5"/>
<line x1="151.171" y1="1477.84" x2="147.789" y2="1109.24" stroke="#F4F6F8" stroke-width="5"/>
<line x1="153.671" y1="1480.32" x2="133.193" y2="1480.32" stroke="#F4F6F8" stroke-width="5"/>
<path d="M133.693 1426.62V1478.35" stroke="#F4F6F8" stroke-width="5"/>
<line x1="20.5" y1="1430.85" x2="61.5" y2="1430.85" stroke="#F4F6F8" stroke-width="5"/>
<line x1="64.0205" y1="1433.45" x2="64" y2="1447.35" stroke="#F4F6F8" stroke-width="5"/>
<line x1="61.5205" y1="1449.6" x2="20.5649" y2="1449.6" stroke="#F4F6F8" stroke-width="5"/>
<line x1="150.258" y1="1111.71" x2="146.845" y2="1111.71" stroke="#F4F6F8" stroke-width="5"/>
<line x1="150.258" y1="1111.71" x2="136.606" y2="1111.71" stroke="#F4F6F8" stroke-width="5"/>
<path d="M137.106 1109.21V1206.85" stroke="#F4F6F8" stroke-width="5"/>
<path d="M137.5 1206.35L17.1519 1206.48" stroke="#F4F6F8" stroke-width="5"/>
<path d="M15.4454 1204.78L15.4454 1022.18" stroke="#F4F6F8" stroke-width="5"/>
<line x1="17.1615" y1="1021.39" x2="134.51" y2="1021.84" stroke="#F4F6F8" stroke-width="5"/>
<path d="M134.899 1023.89V904.437" stroke="#F4F6F8" stroke-width="5"/>
<line x1="3.5" y1="1000.91" x2="122.954" y2="1000.91" stroke="#F4F6F8" stroke-width="5"/>
<line x1="120.454" y1="1003.41" x2="120.454" y2="921.502" stroke="#F4F6F8" stroke-width="5"/>
<path d="M122.954 922.002H68" stroke="#F4F6F8" stroke-width="5"/>
<path d="M136.606 904.937H81.5" stroke="#F4F6F8" stroke-width="5"/>
<line x1="65.8465" y1="921.483" x2="68.9926" y2="498.33" stroke="#F4F6F8" stroke-width="5"/>
<path d="M81.5 904.848L84.9078 512.343" stroke="#F4F6F8" stroke-width="5"/>
<line x1="85.4113" y1="509.445" x2="153.671" y2="509.445" stroke="#F4F6F8" stroke-width="5"/>
<line x1="71.7594" y1="495.793" x2="140.019" y2="495.793" stroke="#F4F6F8" stroke-width="5"/>
<line x1="151.171" y1="511.945" x2="151.171" y2="276.45" stroke="#F4F6F8" stroke-width="5"/>
<path d="M139.519 497.348L139.519 276.451" stroke="#F4F6F8" stroke-width="5"/>
<line x1="300.427" y1="278.951" x2="68.4989" y2="278.849" stroke="#F4F6F8" stroke-width="5"/>
<line x1="297.928" y1="276.451" x2="297.928" y2="255.973" stroke="#F4F6F8" stroke-width="5"/>
<path d="M300.455 257.679L83.7047 257.679" stroke="#F4F6F8" stroke-width="5"/>
<line x1="65.8464" y1="276.451" x2="65.8464" y2="0.000183105" stroke="#F4F6F8" stroke-width="5"/>
<path d="M84.9113 257.848L84.9113 23.8909" stroke="#F4F6F8" stroke-width="5"/>
<line x1="85.4113" y1="21.3906" x2="651.964" y2="21.3906" stroke="#F4F6F8" stroke-width="5"/>
<line x1="654" y1="22.3461" x2="654.464" y2="600.681" stroke="#F4F6F8" stroke-width="5"/>
<line x1="655.377" y1="603.183" x2="518.858" y2="603.183" stroke="#F4F6F8" stroke-width="5"/>
<line x1="521.358" y1="600.683" x2="521.358" y2="890.785" stroke="#F4F6F8" stroke-width="5"/>
<line x1="518.854" y1="893.285" x2="256.496" y2="892.848" stroke="#F4F6F8" stroke-width="5"/>
<line x1="254" y1="894.354" x2="253.56" y2="709.903" stroke="#F4F6F8" stroke-width="5"/>
<line x1="521.358" y1="890.785" x2="521.358" y2="1092.15" stroke="#F4F6F8" stroke-width="5"/>
<line x1="543.662" y1="1092.15" x2="544" y2="628.346" stroke="#F4F6F8" stroke-width="5"/>
<line x1="546.162" y1="625.486" x2="675.855" y2="625.486" stroke="#F4F6F8" stroke-width="5"/>
<line x1="673.355" y1="627.986" x2="673.355" stroke="#F4F6F8" stroke-width="5"/>
<line x1="675.856" y1="2.5" x2="68.5014" y2="2.847" stroke="#F4F6F8" stroke-width="5"/>
<line x1="546.162" y1="1094.65" x2="518.858" y2="1094.65" stroke="#F4F6F8" stroke-width="5"/>
<path d="M518.858 894.698H255" stroke="#F4F6F8" stroke-width="5"/>
<line x1="256.494" y1="712.848" x2="81.9918" y2="712.398" stroke="#F4F6F8" stroke-width="5"/>
<line x1="252.647" y1="743.114" x2="81.9983" y2="743.114" stroke="#F4F6F8" stroke-width="5"/>
<line x1="252.647" y1="777.244" x2="81.9983" y2="777.244" stroke="#F4F6F8" stroke-width="5"/>
<line x1="252.647" y1="811.374" x2="81.9983" y2="811.374" stroke="#F4F6F8" stroke-width="5"/>
<line x1="651.964" y1="278.951" x2="488.142" y2="278.951" stroke="#F4F6F8" stroke-width="5"/>
<line x1="486" y1="276.348" x2="486" y2="255.87" stroke="#F4F6F8" stroke-width="5"/>
<line x1="651.964" y1="258.473" x2="488.142" y2="258.473" stroke="#F4F6F8" stroke-width="5"/>
<line x1="543.9" y1="1217.37" x2="571.204" y2="1159.35" stroke="#F4F6F8" stroke-width="5"/>
<line x1="545" y1="1092.39" x2="545" y2="1133.35" stroke="#F4F6F8" stroke-width="5"/>
<line x1="673" y1="1099.35" x2="673.355" y2="627.984" stroke="#F4F6F8" stroke-width="5"/>
<line x1="810" y1="1099.35" x2="809.874" y2="662.117" stroke="#F4F6F8" stroke-width="5"/>
<line x1="795.309" y1="664.616" x2="672.442" y2="664.616" stroke="#F4F6F8" stroke-width="5"/>
<line x1="812.374" y1="1074.17" x2="675.855" y2="1074.17" stroke="#F4F6F8" stroke-width="5"/>
<line x1="808.961" y1="702.159" x2="672.442" y2="702.159" stroke="#F4F6F8" stroke-width="5"/>
<line x1="808.961" y1="739.701" x2="672.442" y2="739.701" stroke="#F4F6F8" stroke-width="5"/>
<line x1="808.961" y1="780.657" x2="672.442" y2="780.657" stroke="#F4F6F8" stroke-width="5"/>
<line x1="808.961" y1="821.613" x2="675.855" y2="821.613" stroke="#F4F6F8" stroke-width="5"/>
<line x1="808.961" y1="855.742" x2="675.855" y2="855.742" stroke="#F4F6F8" stroke-width="5"/>
<line x1="808.961" y1="896.698" x2="675.855" y2="896.698" stroke="#F4F6F8" stroke-width="5"/>
<line x1="808.961" y1="934.241" x2="675.855" y2="934.241" stroke="#F4F6F8" stroke-width="5"/>
<line x1="810.51" y1="967.848" x2="675.865" y2="968.37" stroke="#F4F6F8" stroke-width="5"/>
<line x1="812.512" y1="1001.85" x2="675.867" y2="1002.5" stroke="#F4F6F8" stroke-width="5"/>
<line x1="812.374" y1="1036.63" x2="675.855" y2="1036.63" stroke="#F4F6F8" stroke-width="5"/>
<line x1="675.5" y1="1096.85" x2="979.5" y2="1096.85" stroke="#F4F6F8" stroke-width="5"/>
<path d="M979.609 1098.98L979.5 1249.35" stroke="#F4F6F8" stroke-width="5"/>
<line x1="979.609" y1="1251.65" x2="675.855" y2="1251.65" stroke="#F4F6F8" stroke-width="5"/>
<line x1="675.855" y1="509.445" x2="791.896" y2="509.445" stroke="#F4F6F8" stroke-width="5"/>
<line x1="675.855" y1="492.381" x2="791.896" y2="492.381" stroke="#F4F6F8" stroke-width="5"/>
<line x1="789.396" y1="494.881" x2="789.396" y2="20.4781" stroke="#F4F6F8" stroke-width="5"/>
<line x1="791.896" y1="22.9778" x2="675.855" y2="22.9778" stroke="#F4F6F8" stroke-width="5"/>
<line x1="789.396" y1="511.945" x2="789.396" y2="474.403" stroke="#F4F6F8" stroke-width="5"/>
<line x1="675.855" y1="1273.95" x2="795.309" y2="1273.95" stroke="#F4F6F8" stroke-width="5"/>
<line x1="797.809" y1="1276.45" x2="798.001" y2="1710.35" stroke="#F4F6F8" stroke-width="5"/>
<line x1="795.309" y1="1712.4" x2="682.681" y2="1712.4" stroke="#F4F6F8" stroke-width="5"/>
<line x1="682.681" y1="1727.88" x2="795.5" y2="1727.88" stroke="#F4F6F8" stroke-width="5"/>
<line x1="797.809" y1="1730.38" x2="797.809" y2="1962.46" stroke="#F4F6F8" stroke-width="5"/>
<line x1="685.5" y1="1980.85" x2="819.5" y2="1980.85" stroke="#F4F6F8" stroke-width="5"/>
<path d="M686.094 1961.96H796" stroke="#F4F6F8" stroke-width="5"/>
<line x1="685.5" y1="1920.85" x2="658.196" y2="1920.85" stroke="#F4F6F8" stroke-width="5"/>
<line x1="682.681" y1="1780.66" x2="655.377" y2="1780.66" stroke="#F4F6F8" stroke-width="5"/>
<path d="M679.268 1590.94H654.5" stroke="#F4F6F8" stroke-width="5"/>
<line x1="675.855" y1="1401.82" x2="651.964" y2="1401.82" stroke="#F4F6F8" stroke-width="5"/>
<line x1="675.855" y1="483.729" x2="651.964" y2="483.729" stroke="#F4F6F8" stroke-width="5"/>
<line x1="675.855" y1="296.016" x2="651.964" y2="296.016" stroke="#F4F6F8" stroke-width="5"/>
<line x1="675.855" y1="210.691" x2="651.964" y2="210.691" stroke="#F4F6F8" stroke-width="5"/>
<path d="M675.855 68.7593H652.5" stroke="#F4F6F8" stroke-width="5"/>
<line x1="137.146" y1="902.466" x2="226.989" y2="981.053" stroke="#F4F6F8" stroke-width="5"/>
<line x1="212.868" y1="971.578" x2="216.281" y2="964.752" stroke="#F4F6F8" stroke-width="5"/>
<line x1="546.5" y1="1026.85" x2="520.5" y2="1026.85" stroke="#F4F6F8" stroke-width="5"/>
<line x1="545.407" y1="946.846" x2="518.407" y2="945.846" stroke="#F4F6F8" stroke-width="5"/>
<line x1="546.162" y1="852.329" x2="522.271" y2="852.329" stroke="#F4F6F8" stroke-width="5"/>
<line x1="546.162" y1="664.616" x2="522.271" y2="664.616" stroke="#F4F6F8" stroke-width="5"/>
<path d="M541.511 1025.39L521.788 945.519" stroke="#F4F6F8" stroke-width="5"/>
<line x1="543.682" y1="850.145" x2="519.791" y2="662.431" stroke="#F4F6F8" stroke-width="5"/>
<line x1="673.373" y1="481.527" x2="651.018" y2="295.647" stroke="#F4F6F8" stroke-width="5"/>
<line x1="669.965" y1="208.527" x2="651.023" y2="68.684" stroke="#F4F6F8" stroke-width="5"/>
<line x1="677.021" y1="1589.67" x2="652.13" y2="1399.96" stroke="#F4F6F8" stroke-width="5"/>
<line x1="680.217" y1="1918.51" x2="656.326" y2="1778.58" stroke="#F4F6F8" stroke-width="5"/>
<line x1="134.518" y1="1445.81" x2="79.9103" y2="1479.94" stroke="#F4F6F8" stroke-width="5"/>
<line x1="816.7" y1="1982.93" x2="816.999" y2="1276.35" stroke="#F4F6F8" stroke-width="5"/>
<line x1="819.2" y1="1273.95" x2="1003.5" y2="1273.95" stroke="#F4F6F8" stroke-width="5"/>
<line x1="1001" y1="1276.45" x2="1001" y2="1078.5" stroke="#F4F6F8" stroke-width="5"/>
<line x1="1003.5" y1="1081" x2="829.439" y2="1081" stroke="#F4F6F8" stroke-width="5"/>
<path d="M829.439 1078.85V662.116" stroke="#F4F6F8" stroke-width="5"/>
<line x1="812.374" y1="664.616" x2="785.07" y2="664.616" stroke="#F4F6F8" stroke-width="5"/>
<line x1="791.896" y1="509.445" x2="812.374" y2="509.445" stroke="#F4F6F8" stroke-width="5"/>
<line x1="809.874" y1="511.945" x2="809.874" y2="-9.15527e-05" stroke="#F4F6F8" stroke-width="5"/>
<line x1="812.374" y1="2.5" x2="655.377" y2="2.5" stroke="#F4F6F8" stroke-width="5"/>
<line x1="829.439" y1="664.616" x2="802.135" y2="664.616" stroke="#F4F6F8" stroke-width="5"/>
</svg>
